<svg xmlns="http://www.w3.org/2000/svg" xml:space="preserve" width="2000" height="80" data-id="lg_iWgw4TY6Zsd5n1hihj" data-version="1" viewBox="0 0 2000 80"><g data-padding="20"><g transform="translate(10 1.431)scale(.96422)"><rect width="524.161" height="92.475" x="606.53" y="-46.505" fill="none" rx="0" ry="0" transform="matrix(.86 0 0 .86 333.96 40.23)"/><path fill="#ff4136" d="M879.095 63.6q-5.28 0-9.26-1.27-3.98-1.26-6.66-3.66-2.67-2.39-4.01-5.81t-1.34-7.64V29.58q0-4.02 1.37-7.33 1.38-3.31 4.09-5.74t6.62-3.74q3.91-1.3 8.91-1.3 3.95 0 7.15.74 3.21.74 5.46 1.83 2.26 1.09 3.31 2.22.21.14.28.32.07.17.11.39.04.21.04.49v13.52h-11.7q-.42 0-.56-.21t-.14-.56v-7.26l1.9 2.96q-1.69-.98-3.1-1.34-1.41-.35-3.1-.35-1.83 0-3.17.71-1.34.7-2.01 2.11t-.67 3.66v12.54q0 1.9.39 3.24t1.3 2.26q.92.91 2.36 1.3 1.45.39 3.42.39 3.66 0 6.83-.78 3.17-.77 7.05-2.81h1.41v12.04q0 .21-.07.39t-.22.39q-.98.91-3.27 1.83-2.29.91-5.57 1.51-3.27.6-7.15.6m39.74-41.14q4.36 0 7.82 1.09 3.45 1.09 5.84 3.24 2.4 2.15 3.67 5.25 1.26 3.1 1.26 7.19v7.46q0 5.29-2.22 9.06-2.21 3.77-6.37 5.7-4.16 1.94-10 1.94-4.37 0-7.82-1.09-3.46-1.09-5.85-3.24-2.4-2.15-3.66-5.25-1.27-3.1-1.27-7.12v-7.46q0-5.43 2.22-9.13 2.22-3.69 6.41-5.67 4.19-1.97 9.97-1.97m0 12.54q-1.55 0-2.54.49-.99.5-1.48 1.59t-.49 2.78v6.2q0 1.27.28 2.18.28.92.91 1.48.57.57 1.38.85t1.94.28q1.55 0 2.57-.49 1.02-.5 1.48-1.55.45-1.06.45-2.75v-6.2q0-1.34-.28-2.25-.28-.92-.84-1.55-.57-.57-1.38-.81-.81-.25-2-.25m60.36 27.2h-13.32q-.21 0-.38-.1-.18-.11-.28-.25-.11-.14-.11-.42V37.62q0-1.2-.49-1.76-.5-.57-1.69-.57-.78 0-1.66.18-.88.17-1.76.63t-1.83 1.09q-.95.64-1.87 1.62v-9.08h2.96q1.48-2.26 3.06-3.77 1.59-1.52 3.49-2.26t4.23-.74q2.25 0 4.05.74 1.79.74 3.03 2.15 1.23 1.41 1.9 3.49t.67 4.75v24.63Zm-21.84 0h-13.31q-.22 0-.36-.03-.14-.04-.24-.14-.11-.11-.14-.25-.04-.14-.04-.35V23.67h13.32q.28 0 .42.1.14.11.24.29.11.17.11.45v25.12Zm26.78-38.53h29.94q.35 0 .56.21.22.21.22.56v12.4h-29.94q-.15 0-.29-.07t-.24-.17q-.11-.11-.18-.25t-.07-.28v-8.49Zm29.45 25.29h1.27v12.47q0 .28-.22.53-.21.24-.56.24h-7.68q-4.08 0-7.22-1.02-3.13-1.02-5.28-2.99t-3.21-5.04q-1.05-3.06-1.05-7.15V12.89h13.31q.21 0 .39.11.17.1.28.28.1.17.1.38v31.28q0 1.13.25 1.91.25.77.81 1.26.49.5 1.3.67.82.18 1.94.18h3.74Zm25.15-26.5q5.7 0 9.72 2.04 4.01 2.05 6.13 5.75 2.11 3.69 2.11 8.77v6.62q0 .21-.1.39-.11.17-.25.24t-.42.07h-24.52v-6.76h12.47v-1.06q0-1.34-.28-2.25-.28-.92-.85-1.48-.56-.63-1.44-.92-.88-.28-2.08-.28-2.25 0-3.49 1.23-1.23 1.24-1.23 3.56v8.53q0 .77.11 1.48.1.7.35 1.26.24.57.67.99.77.77 2.29 1.16 1.51.39 4.4.32 2.25 0 4.19-.18 1.94-.17 3.84-.6 1.9-.42 3.88-.98h1.4v10.07q0 .14-.07.28t-.21.29q-.63.63-2.74 1.19-2.12.57-5.11.88-3 .32-6.24.32-5.14 0-8.98-1.09t-6.44-3.21q-2.61-2.11-3.91-5.21-1.31-3.1-1.31-7.11v-7.68q0-3.67 1.24-6.7 1.23-3.03 3.62-5.28 2.4-2.25 5.74-3.45 3.35-1.2 7.51-1.2m60.22 39.74h-13.31q-.22 0-.39-.1-.18-.11-.28-.25-.11-.14-.11-.42V37.62q0-1.2-.49-1.76-.5-.57-1.69-.57-.78 0-1.66.18-.88.17-1.76.63t-1.83 1.09q-.95.64-1.87 1.62v-9.08h2.96q1.48-2.26 3.06-3.77 1.59-1.52 3.49-2.26t4.23-.74q2.25 0 4.05.74t3.03 2.15 1.9 3.49.67 4.75v24.63Zm-21.84 0h-13.31q-.21 0-.36-.03-.14-.04-.24-.14-.11-.11-.14-.25-.04-.14-.04-.35V23.67h13.32q.28 0 .42.1.14.11.25.29.1.17.1.45v25.12Zm26.78-38.53h29.94q.35 0 .57.21.21.21.21.56v12.4h-29.94q-.14 0-.29-.07-.14-.07-.24-.17-.11-.11-.18-.25t-.07-.28v-8.49Zm29.45 25.29h1.27v12.47q0 .28-.21.53-.22.24-.57.24h-7.68q-4.08 0-7.22-1.02-3.13-1.02-5.28-2.99t-3.21-5.04q-1.05-3.06-1.05-7.15V12.89h13.31q.21 0 .39.11.17.1.28.28.11.17.11.38v31.28q0 1.13.24 1.91.25.77.81 1.26.5.5 1.31.67.81.18 1.93.18h3.74Zm5.07-22.19h24.38q.21 0 .38.1.18.11.28.25.11.14.11.42v11.63h-24.37q-.22 0-.39-.11-.18-.1-.28-.28-.11-.18-.11-.39v-5.81Zm18.46 35.15q-2.61.14-5.25.21t-5.32.07q-1.06 0-2.01-.17-.95-.18-1.79-.32V23.1q0-3.52.98-6.34.99-2.81 2.89-4.79 1.9-1.97 4.72-2.99t6.34-1.02q2.04 0 3.49.25 1.44.24 2.36.52.91.29 1.2.64.14.07.17.24.04.18.04.32v11.13h-1.41q-.57-.21-1.09-.39-.53-.17-1.1-.21-.56-.03-1.19-.03-.64 0-1.2.17-.56.18-1.06.6-.42.5-.6 1.09-.17.6-.17 1.52V54.7Zm8.66-52.56h17.33q.21 0 .39.1.18.11.28.25.11.14.11.42v37.69q0 .35.03.53.04.18.18.39.21.14.42.21t.57.07h3.59v12.4q0 .28-.11.42-.1.14-.24.25-.14.1-.43.1h-7.75q-2.39 0-4.36-.67-1.98-.67-3.28-1.97t-2.01-3.24q-.7-1.94-.7-4.4V22.25h-3.24q-.35 0-.57-.21-.21-.21-.21-.57v-6.05Zm45.65 13.1q4.37 0 7.82 1.09t5.85 3.24q2.39 2.15 3.66 5.25t1.27 7.19v7.46q0 5.29-2.22 9.06t-6.37 5.7q-4.16 1.94-10.01 1.94-4.36 0-7.82-1.09-3.45-1.09-5.84-3.24-2.4-2.15-3.67-5.25t-1.27-7.12v-7.46q0-5.43 2.22-9.13 2.22-3.69 6.41-5.67 4.2-1.97 9.97-1.97m0 12.54q-1.55 0-2.53.49-.99.5-1.48 1.59-.5 1.09-.5 2.78v6.2q0 1.27.29 2.18.28.92.91 1.48.57.57 1.38.85t1.93.28q1.55 0 2.57-.49 1.03-.5 1.48-1.55.46-1.06.46-2.75v-6.2q0-1.34-.28-2.25-.28-.92-.85-1.55-.56-.57-1.37-.81-.81-.25-2.01-.25m44.24-11.33h9.37q.21 0 .39.1.18.11.28.25.11.14.18.42.77 3.46 1.55 6.73.77 3.28 1.44 6.38t1.2 6.09.81 5.95h1.62q0-2.96.11-6.02.1-3.06.35-6.27t.56-6.59q.32-3.38.67-7.04h12.54q.21 0 .35.1.14.11.25.29.11.17.04.52-.85 4.65-1.63 9.34-.77 4.68-1.54 9.4-.78 4.72-1.59 9.44t-1.66 9.44h-14.37q-.49 0-.88-.38-.38-.39-.74-1.59-.42-1.9-.81-3.45-.38-1.55-.67-3-.28-1.44-.6-3.13-.31-1.69-.63-3.84t-.74-5.11h-1.48q-.35 2.54-.67 4.51-.31 1.97-.63 3.56-.32 1.58-.64 2.99l-.63 2.86q-.32 1.44-.7 3.03-.39 1.58-.96 3.55h-14.01q-.5 0-.88-.38-.39-.39-.67-1.66-.57-3.45-1.2-7.01-.64-3.56-1.23-7.18-.6-3.63-1.27-7.37-.67-3.73-1.27-7.46-.6-3.74-1.23-7.47h12.32q.29 0 .46.1.18.11.32.32t.14.78q.42 3.59.74 6.79.32 3.21.56 6.2.25 3 .36 5.89.1 2.88.03 5.84h1.62q.28-2.81.81-5.84t1.2-6.24q.67-3.2 1.44-6.66.78-3.45 1.62-7.18M820.827 41.712l-1.224-1.411-1.844.272-2.568.374-1.708-27.625-.28-4.488-1.692-1.998-3.995 4.47-22.695 26.35-.918 1.072.11 1.41.086 1.123-17.706-16.813-12.172-11.875-4.752-.892 11.74 17.102 13.66 20.825-.469.025-1.139.05-.876.732-19.575 16.194-5.695 4.717 2.797 1.683 5.312-.383 40.673-2.95 6.221 3.545 2.96 1.683 1.681-2.975 10.592-18.76 12.163 1.837Zm-5.67 6.757 1.02-1.82 6.41 4.489Zm3.095-4.53 3.45 4.505-5.916-4.14Zm-6.308-.4-2.66 2.737-8.38-1.232 9.264-30.277Zm-17.51 4.165 8.585 5.015-2.567 2.635Zm5.644 12.495-7.692-2.66-1.07-.553.475-9.894 7.65 9.733Zm-.56-11.492-.17-2.21 8.482 1.275-3.587 3.689Zm8.525-32.801-8.806 28.764-11.262-5.457Zm-10.455 29.86.145 1.904-6.529-4.054-3.348 2.21-.383-4.964Zm-7.463.595-.476 9.775-8.058-4.148Zm-26.07-19.44 21.505 20.426-5.669 3.73Zm10.498 26.12 4.938-.22 10.311 5.304-33.464 9.996Zm-14.892 15.845 32.402-9.673 8.882 3.069-4.292 3.918Zm38.556-1.81 3.791-3.46 1.113 6.256Zm5.1-5.764-1.385-.484-.732-3.893.043.043 11.968-12.3.093-.017 1.48 1.01-10.847 19.075Zm1.335 7.43-.256-1.42.026.017 9.885-17.391.765.314Z"/></g><path fill="transparent" stroke="transparent" d="M720.5 0h559v80h-559z"/></g></svg>